<svg width="120" height="23" viewBox="0 0 120 23" xmlns="http://www.w3.org/2000/svg"><title>Pull Reminders enabled</title><defs><linearGradient x1="80.767%" y1="32.938%" x2="80.767%" y2="68.001%" id="a"><stop stop-color="#FFF" offset="0%"/><stop stop-color="#E6E6E6" offset="100%"/></linearGradient><linearGradient x1="100%" y1="50%" x2="23.615%" y2="50%" id="b"><stop stop-color="#FFF" offset="0%"/><stop stop-color="#FFF" stop-opacity="0" offset="100%"/></linearGradient></defs><g fill="none" fill-rule="evenodd"><rect fill="url(#a)" fill-rule="nonzero" y="3" width="120" height="20" rx="4"/><rect stroke="#CBCBCB" stroke-width=".8" x=".4" y="3.4" width="119.2" height="19.2" rx="4"/><rect fill-opacity=".9" fill="url(#b)" fill-rule="nonzero" y="3" width="120" height="20" rx="4"/><path d="M9.748 14.578V17.5H7.72V8.758h3.084c.616 0 1.145.073 1.587.219.442.146.806.347 1.092.603.286.256.497.558.633.906s.204.724.204 1.128c0 .436-.07.836-.21 1.2-.14.364-.354.676-.642.936-.288.26-.653.463-1.095.609-.442.146-.965.219-1.569.219H9.748zm0-1.53h1.056c.528 0 .908-.126 1.14-.378.232-.252.348-.604.348-1.056 0-.2-.03-.382-.09-.546a1.111 1.111 0 0 0-.273-.423 1.227 1.227 0 0 0-.462-.273 2.044 2.044 0 0 0-.663-.096H9.748v2.772zm7.368-1.77v3.948c0 .308.07.546.21.714.14.168.346.252.618.252.204 0 .395-.042.573-.126.178-.084.351-.202.519-.354v-4.434h1.86V17.5h-1.152c-.232 0-.384-.104-.456-.312l-.114-.36a3.61 3.61 0 0 1-.372.315 2.277 2.277 0 0 1-.411.24 2.45 2.45 0 0 1-1.023.213c-.34 0-.641-.059-.903-.177a1.858 1.858 0 0 1-.663-.495 2.159 2.159 0 0 1-.408-.75 3.102 3.102 0 0 1-.138-.948v-3.948h1.86zm7.14-2.76V17.5h-1.86V8.518h1.86zm3.42 0V17.5h-1.86V8.518h1.86zm5.844 5.748V17.5h-2.028V8.758h2.844c.632 0 1.171.065 1.617.195.446.13.81.311 1.092.543.282.232.487.506.615.822.128.316.192.66.192 1.032 0 .284-.038.552-.114.804-.075.25-.19.486-.339.699-.15.214-.334.405-.552.573-.23.174-.483.314-.753.414.136.068.263.152.381.252s.221.222.309.366l1.86 3.042h-1.836c-.34 0-.584-.128-.732-.384l-1.452-2.538a.611.611 0 0 0-.225-.24.753.753 0 0 0-.363-.072h-.516zm0-1.398h.816c.276 0 .511-.035.705-.105.194-.07.353-.167.477-.291.124-.124.214-.269.27-.435a1.67 1.67 0 0 0 .084-.537c0-.384-.125-.684-.375-.9-.25-.216-.637-.324-1.161-.324h-.816v2.592zm8.616-1.686c.412 0 .789.064 1.131.192.342.128.636.314.882.558.246.244.438.543.576.897.138.354.207.755.207 1.203 0 .14-.006.254-.018.342a.541.541 0 0 1-.066.21.251.251 0 0 1-.129.108.604.604 0 0 1-.207.03h-3.588c.06.52.218.897.474 1.131.256.234.586.351.99.351.216 0 .402-.026.558-.078.156-.052.295-.11.417-.174l.336-.174c.1-.051.21-.078.321-.078.148 0 .26.054.336.162l.54.666c-.192.22-.399.399-.621.537-.222.138-.45.246-.684.324-.228.077-.463.13-.702.162-.234.03-.457.045-.669.045-.436 0-.845-.071-1.227-.213a2.82 2.82 0 0 1-1.002-.633 2.987 2.987 0 0 1-.678-1.044c-.166-.416-.249-.9-.249-1.452 0-.416.071-.81.213-1.182.142-.372.346-.698.612-.978s.588-.502.966-.666a3.18 3.18 0 0 1 1.281-.246zm.036 1.284c-.356 0-.634.101-.834.303-.2.202-.332.493-.396.873h2.322c0-.148-.019-.292-.057-.432-.038-.14-.1-.265-.186-.375a.946.946 0 0 0-.339-.267 1.16 1.16 0 0 0-.51-.102zM46 17.5v-6.222h1.152c.116 0 .213.026.291.078.078.052.133.13.165.234l.102.336c.104-.108.212-.207.324-.297.23-.184.497-.317.783-.39.15-.038.315-.057.495-.057.376 0 .687.097.933.291.246.194.433.453.561.777a1.84 1.84 0 0 1 .381-.492c.15-.136.312-.246.486-.33.174-.084.358-.146.552-.186.194-.04.387-.06.579-.06.356 0 .672.053.948.159.276.106.507.26.693.462.186.202.327.45.423.744.096.294.144.627.144.999V17.5h-1.86v-3.954c0-.644-.276-.966-.828-.966a.85.85 0 0 0-.627.249c-.166.166-.249.405-.249.717V17.5h-1.86v-3.954c0-.356-.07-.606-.21-.75-.14-.144-.346-.216-.618-.216-.168 0-.327.038-.477.114-.15.076-.291.178-.423.306v4.5H46zm12.252-6.222V17.5h-1.86v-6.222h1.86zm.216-1.704c0 .148-.03.287-.09.417s-.142.244-.246.342c-.106.1-.229.179-.363.234a1.126 1.126 0 0 1-1.458-.576 1.012 1.012 0 0 1-.087-.417c0-.152.029-.294.087-.426.114-.263.326-.472.591-.582.42-.168.9-.077 1.23.234.104.1.186.216.246.348.06.132.09.274.09.426zm1.284 7.926v-6.222h1.152c.116 0 .213.026.291.078.078.052.133.13.165.234l.108.36c.12-.112.244-.216.372-.312s.265-.177.411-.243a2.44 2.44 0 0 1 1.029-.213c.34 0 .641.059.903.177s.483.282.663.492c.18.21.316.46.408.75.092.29.138.605.138.945V17.5h-1.86v-3.954c0-.304-.07-.541-.21-.711-.14-.17-.346-.255-.618-.255-.204 0-.396.044-.576.132a2.24 2.24 0 0 0-.516.354V17.5h-1.86zm11.328 0a.513.513 0 0 1-.291-.078.416.416 0 0 1-.165-.234l-.144-.474c-.121.13-.251.25-.39.36-.278.224-.603.38-.951.459a2.626 2.626 0 0 1-.591.063c-.324 0-.624-.072-.9-.216a2.074 2.074 0 0 1-.714-.624 3.149 3.149 0 0 1-.471-.999 4.852 4.852 0 0 1-.171-1.347c0-.464.064-.895.192-1.293.116-.375.3-.725.543-1.032.234-.29.515-.517.843-.681.328-.164.69-.246 1.086-.246.32 0 .591.047.813.141.222.094.423.217.603.369v-3.15h1.86V17.5H71.08zm-1.884-1.332c.136 0 .259-.013.369-.039.21-.049.403-.149.564-.291.082-.072.163-.156.243-.252v-2.64a1.23 1.23 0 0 0-.459-.327 1.423 1.423 0 0 0-.513-.093c-.172 0-.33.034-.474.102a.966.966 0 0 0-.375.327c-.106.15-.189.345-.249.585s-.09.53-.09.87c0 .328.024.604.072.828.048.224.115.405.201.543a.78.78 0 0 0 .309.297c.12.06.254.09.402.09zm7.14-4.986c.412 0 .789.064 1.131.192.342.128.636.314.882.558.246.244.438.543.576.897.138.354.207.755.207 1.203 0 .14-.006.254-.018.342a.541.541 0 0 1-.066.21.251.251 0 0 1-.129.108.604.604 0 0 1-.207.03h-3.588c.06.52.218.897.474 1.131.256.234.586.351.99.351.216 0 .402-.026.558-.078.156-.052.295-.11.417-.174l.336-.174c.1-.051.21-.078.321-.078.148 0 .26.054.336.162l.54.666c-.192.22-.399.399-.621.537-.222.138-.45.246-.684.324-.228.077-.463.13-.702.162-.234.03-.457.045-.669.045-.436 0-.845-.071-1.227-.213a2.82 2.82 0 0 1-1.002-.633 2.987 2.987 0 0 1-.678-1.044c-.166-.416-.249-.9-.249-1.452 0-.416.071-.81.213-1.182.142-.372.346-.698.612-.978s.588-.502.966-.666a3.18 3.18 0 0 1 1.281-.246zm.036 1.284c-.356 0-.634.101-.834.303-.2.202-.332.493-.396.873h2.322c0-.148-.019-.292-.057-.432-.038-.14-.1-.265-.186-.375a.946.946 0 0 0-.339-.267 1.16 1.16 0 0 0-.51-.102zM80.2 17.5v-6.222h1.104c.092 0 .169.008.231.024a.41.41 0 0 1 .156.075.32.32 0 0 1 .096.135c.022.056.041.124.057.204l.102.582c.228-.352.484-.63.768-.834.27-.2.595-.306.93-.306.284 0 .512.068.684.204l-.24 1.368c-.016.084-.048.143-.096.177a.326.326 0 0 1-.192.051c-.068 0-.148-.009-.24-.027a1.86 1.86 0 0 0-.348-.027c-.488 0-.872.26-1.152.78V17.5H80.2zm8.76-4.86a.481.481 0 0 1-.153.162.401.401 0 0 1-.207.048.661.661 0 0 1-.264-.057l-.285-.123a3.105 3.105 0 0 0-.345-.123 1.54 1.54 0 0 0-.438-.057c-.236 0-.417.045-.543.135a.435.435 0 0 0-.189.375c0 .116.041.212.123.288.082.076.191.143.327.201.136.058.29.113.462.165.172.052.348.11.528.174.18.064.356.139.528.225.172.086.326.192.462.318s.245.279.327.459c.082.18.123.396.123.648 0 .308-.056.592-.168.852a1.81 1.81 0 0 1-.501.672 2.37 2.37 0 0 1-.822.438c-.365.11-.744.162-1.125.156-.212 0-.424-.02-.636-.06a4.405 4.405 0 0 1-.615-.162 3.35 3.35 0 0 1-.549-.243 2.38 2.38 0 0 1-.432-.303l.432-.684a.622.622 0 0 1 .186-.189.517.517 0 0 1 .282-.069c.108 0 .205.024.291.072l.279.156c.1.056.217.108.351.156.134.048.303.072.507.072.144 0 .266-.015.366-.045.1-.03.18-.071.24-.123a.491.491 0 0 0 .174-.372.404.404 0 0 0-.126-.306 1.098 1.098 0 0 0-.33-.207 4.023 4.023 0 0 0-.465-.162 9.031 9.031 0 0 1-.531-.171 4.265 4.265 0 0 1-.531-.231 1.827 1.827 0 0 1-.465-.342 1.59 1.59 0 0 1-.33-.507 1.873 1.873 0 0 1-.126-.726c0-.264.051-.515.153-.753.102-.238.255-.447.459-.627.204-.18.46-.323.768-.429a3.32 3.32 0 0 1 1.08-.159c.424 0 .845.077 1.242.228.184.072.352.157.504.255.152.098.286.205.402.321l-.42.654z" fill="#000" fill-rule="nonzero"/><g fill-rule="nonzero"><path d="M98.922 14.461a2.411 2.411 0 0 1-2.405 2.405 2.411 2.411 0 0 1-2.405-2.405 2.411 2.411 0 0 1 2.405-2.405h2.405v2.405zm1.212 0a2.411 2.411 0 0 1 2.405-2.405 2.411 2.411 0 0 1 2.405 2.405v6.022a2.411 2.411 0 0 1-2.405 2.405 2.411 2.411 0 0 1-2.405-2.405v-6.022z" fill="#E01E5A"/><path d="M102.539 4.922a2.411 2.411 0 0 1-2.405-2.405 2.411 2.411 0 0 1 2.405-2.405 2.411 2.411 0 0 1 2.405 2.405v2.405h-2.405zm0 1.212a2.411 2.411 0 0 1 2.405 2.405 2.411 2.411 0 0 1-2.405 2.405h-6.022a2.411 2.411 0 0 1-2.405-2.405 2.411 2.411 0 0 1 2.405-2.405h6.022z" fill="#36C5F0"/><path d="M112.078 8.539a2.411 2.411 0 0 1 2.405-2.405 2.411 2.411 0 0 1 2.405 2.405 2.411 2.411 0 0 1-2.405 2.405h-2.405V8.54zm-1.212 0a2.411 2.411 0 0 1-2.405 2.405 2.411 2.411 0 0 1-2.405-2.405V2.517A2.411 2.411 0 0 1 108.46.112a2.411 2.411 0 0 1 2.405 2.405v6.022z" fill="#2EB67D"/><path d="M108.461 18.078a2.411 2.411 0 0 1 2.405 2.405 2.411 2.411 0 0 1-2.405 2.405 2.411 2.411 0 0 1-2.405-2.405v-2.405h2.405zm0-1.212a2.411 2.411 0 0 1-2.405-2.405 2.411 2.411 0 0 1 2.405-2.405h6.022a2.411 2.411 0 0 1 2.405 2.405 2.411 2.411 0 0 1-2.405 2.405h-6.022z" fill="#ECB22E"/></g></g></svg>